<svg xmlns="http://www.w3.org/2000/svg" viewBox="0 0 300 400" width="300" height="400">
  <defs>
    <filter id="gritty-noise">
      <feTurbulence type="fractalNoise" baseFrequency="0.75" numOctaves="4" result="noise"/>
      <feColorMatrix type="matrix" values="
        0.21 0.21 0.21 0 0
        0.21 0.21 0.21 0 0
        0.21 0.21 0.21 0 0
        0    0    0    0.24 0" in="noise" result="coloredNoise"/>
      <feComposite operator="over" in="coloredNoise" in2="SourceGraphic"/>
    </filter>
    
    <!-- Rich gradients for gothic wood structure -->
    <linearGradient id="bookcase-frame" x1="0" y1="0" x2="0" y2="1">
      <stop offset="0%" stop-color="#451e03"/>
      <stop offset="50%" stop-color="#2d1500"/>
      <stop offset="100%" stop-color="#140a00"/>
    </linearGradient>
    <linearGradient id="bookcase-interior" x1="0" y1="0" x2="0" y2="1">
      <stop offset="0%" stop-color="#1d1108"/>
      <stop offset="100%" stop-color="#0a0502"/>
    </linearGradient>
    <linearGradient id="shelf-wood" x1="0" y1="0" x2="0" y2="1">
      <stop offset="0%" stop-color="#5c2d05"/>
      <stop offset="100%" stop-color="#1c0e01"/>
    </linearGradient>
  </defs>
  
  <g filter="url(#gritty-noise)">
    <!-- Back Interior Panel -->
    <rect x="18" y="18" width="264" height="364" fill="url(#bookcase-interior)"/>
    
    <!-- Outer cabinet wooden structure -->
    <rect x="10" y="10" width="280" height="380" fill="none" stroke="url(#bookcase-frame)" stroke-width="12" rx="4"/>
    <rect x="10" y="10" width="280" height="380" fill="none" stroke="#110700" stroke-width="4" rx="4"/>
    
    <!-- Decorative Crown Molding -->
    <rect x="5" y="5" width="290" height="20" fill="url(#shelf-wood)" stroke="#110700" stroke-width="3" rx="2"/>
    
    <!-- Shelves -->
    <rect x="16" y="110" width="268" height="12" fill="url(#shelf-wood)" stroke="#110700" stroke-width="2.5"/>
    <rect x="16" y="200" width="268" height="12" fill="url(#shelf-wood)" stroke="#110700" stroke-width="2.5"/>
    <rect x="16" y="290" width="268" height="12" fill="url(#shelf-wood)" stroke="#110700" stroke-width="2.5"/>
    
    <!-- Shelf 1 (Top) Books -->
    <rect x="30" y="35" width="18" height="75" fill="#7f1d1d" stroke="#110700" stroke-width="2"/>
    <line x1="33" y1="45" x2="45" y2="45" stroke="#facc15" stroke-width="2"/>
    <line x1="33" y1="55" x2="45" y2="55" stroke="#facc15" stroke-width="2"/>
    
    <rect x="48" y="40" width="14" height="70" fill="#1e3a5f" stroke="#110700" stroke-width="2"/>
    <rect x="62" y="32" width="20" height="78" fill="#14532d" stroke="#110700" stroke-width="2"/>
    <rect x="82" y="45" width="16" height="65" fill="#78350f" stroke="#110700" stroke-width="2"/>
    <!-- Leaning book -->
    <g transform="translate(98,110) rotate(15) translate(-98,-110)">
      <rect x="98" y="35" width="16" height="75" fill="#581c87" stroke="#110700" stroke-width="2"/>
    </g>
    <!-- Books at the right side of shelf 1 -->
    <rect x="200" y="40" width="18" height="70" fill="#450a0a" stroke="#110700" stroke-width="2"/>
    <rect x="218" y="35" width="22" height="75" fill="#065f46" stroke="#110700" stroke-width="2"/>
    <rect x="240" y="38" width="16" height="72" fill="#854d0e" stroke="#110700" stroke-width="2"/>
    
    <!-- Shelf 2 Books -->
    <rect x="35" y="125" width="22" height="75" fill="#3f1a04" stroke="#110700" stroke-width="2"/>
    <rect x="57" y="135" width="18" height="65" fill="#1e293b" stroke="#110700" stroke-width="2"/>
    <rect x="75" y="120" width="24" height="80" fill="#7f1d1d" stroke="#110700" stroke-width="2"/>
    <rect x="99" y="130" width="15" height="70" fill="#0f766e" stroke="#110700" stroke-width="2"/>
    <rect x="114" y="125" width="20" height="75" fill="#854d0e" stroke="#110700" stroke-width="2"/>
    
    <!-- Shelf 3 Books (Ancient/mysterious glowing section) -->
    <rect x="30" y="215" width="25" height="75" fill="#311042" stroke="#4a044e" stroke-width="2"/>
    <!-- Glowing book of shadows -->
    <rect x="55" y="210" width="28" height="80" fill="#090d16" stroke="#22d3ee" stroke-width="3"/>
    <path d="M 69 225 L 69 275" stroke="#22d3ee" stroke-width="2" stroke-linecap="round" opacity="0.8"/> <!-- Glowing rune on spine -->
    <rect x="83" y="220" width="20" height="70" fill="#172554" stroke="#1d4ed8" stroke-width="2"/>
    
    <rect x="150" y="225" width="18" height="65" fill="#451a03" stroke="#110700" stroke-width="2"/>
    <rect x="168" y="215" width="22" height="75" fill="#14532d" stroke="#110700" stroke-width="2"/>
    <rect x="190" y="222" width="16" height="68" fill="#701a75" stroke="#110700" stroke-width="2"/>
    <g transform="translate(206,290) rotate(12) translate(-206,-290)">
      <rect x="206" y="220" width="15" height="70" fill="#9a3412" stroke="#110700" stroke-width="2"/>
    </g>
    
    <!-- Bottom Cabinet base doors -->
    <rect x="18" y="302" width="128" height="80" fill="#1a0b01" stroke="#110700" stroke-width="4"/>
    <rect x="146" y="302" width="128" height="80" fill="#1a0b01" stroke="#110700" stroke-width="4"/>
    <!-- Brass door handles -->
    <circle cx="125" cy="342" r="5" fill="#ca8a04" stroke="#110700" stroke-width="1.5"/>
    <circle cx="140" cy="342" r="5" fill="#ca8a04" stroke="#110700" stroke-width="1.5"/>
  </g>
</svg>
